<?xml version="1.0" encoding="utf-8"?>
<!-- Uploaded to: SVG Repo, www.svgrepo.com, Generator: SVG Repo Mixer Tools -->
<svg fill="#000000" width="800px" height="800px" viewBox="0 0 32 32" version="1.1" xmlns="http://www.w3.org/2000/svg">
<title>diamond</title>
<path d="M30.531 15.47l-14.001-14c-0.136-0.136-0.323-0.22-0.53-0.22s-0.395 0.084-0.53 0.22l-14 14c-0.136 0.136-0.22 0.323-0.22 0.53s0.084 0.395 0.22 0.53l14 14.001c0.136 0.135 0.323 0.219 0.53 0.219s0.394-0.084 0.53-0.219l14.001-14.001c0.135-0.136 0.218-0.323 0.218-0.53s-0.083-0.394-0.218-0.53l0 0zM16 28.939l-12.939-12.939 12.939-12.939 12.939 12.939z"></path>
</svg>