<?xml version="1.0" encoding="UTF-8" standalone="no"?>
<!-- Uploaded to: SVG Repo, www.svgrepo.com, Generator: SVG Repo Mixer Tools -->

<svg fill="#000000" width="800" height="800" viewBox="0 0 32 32">
  <path d="M 30.531,15.47 16.53,1.47 C 16.394,1.334 16.207,1.25 16,1.25 c -0.207,0 -0.395,0.084 -0.53,0.22 l -14,14 C 1.334,15.606 1.25,15.793 1.25,16 c 0,0.207 0.084,0.395 0.22,0.53 l 14,14.001 c 0.136,0.135 0.323,0.219 0.53,0.219 0.207,0 0.394,-0.084 0.53,-0.219 L 30.531,16.53 c 0.135,-0.136 0.218,-0.323 0.218,-0.53 0,-0.207 -0.083,-0.394 -0.218,-0.53 z M 16,28.939 3.061,16 16,3.061 28.939,16 Z" id="path77" />
  <path style="fill:#000000;stroke-width:0.0411333" d="m 9.0657409,22.622953 -6.9026582,-6.572511 6.9027536,-6.5724184 6.9027547,-6.572419 6.902658,6.5725104 6.902657,6.572511 -6.902753,6.572418 -6.902754,6.572419 z" id="path262" />
</svg>
