<svg fill="#000000" enable-background="new 0 0 32 32" id="Glyph" version="1.1" xml:space="preserve" xmlns="http://www.w3.org/2000/svg" xmlns:xlink="http://www.w3.org/1999/xlink" viewBox="3 13 26 6"><path d="M16,13c-1.654,0-3,1.346-3,3s1.346,3,3,3s3-1.346,3-3S17.654,13,16,13z" id="XMLID_287_"></path><path d="M6,13c-1.654,0-3,1.346-3,3s1.346,3,3,3s3-1.346,3-3S7.654,13,6,13z" id="XMLID_289_"></path><path d="M26,13c-1.654,0-3,1.346-3,3s1.346,3,3,3s3-1.346,3-3S27.654,13,26,13z" id="XMLID_291_"></path></svg>