<?xml version="1.0" encoding="utf-8"?>
<!-- Uploaded to: SVG Repo, www.svgrepo.com, Generator: SVG Repo Mixer Tools -->
<svg fill="#000000" width="800px" height="800px" viewBox="0 0 32 32" version="1.1" xmlns="http://www.w3.org/2000/svg">
<title>home</title>
<path d="M30.488 13.431l-14-12c-0.13-0.112-0.301-0.18-0.488-0.18s-0.358 0.068-0.489 0.181l0.001-0.001-14 12c-0.161 0.138-0.262 0.342-0.262 0.569v16c0 0.414 0.336 0.75 0.75 0.75h28c0.414-0 0.75-0.336 0.75-0.75v0-16c-0-0.227-0.101-0.431-0.261-0.569l-0.001-0.001zM11.75 29.25v-5.25c0-2.347 1.903-4.25 4.25-4.25s4.25 1.903 4.25 4.25v0 5.25zM29.25 29.25h-7.5v-5.25c0-3.176-2.574-5.75-5.75-5.75s-5.75 2.574-5.75 5.75v0 5.25h-7.5v-14.905l13.25-11.356 13.25 11.356z"></path>
</svg>