<?xml version="1.0" encoding="utf-8"?><!-- Uploaded to: SVG Repo, www.svgrepo.com, Generator: SVG Repo Mixer Tools -->
<svg width="800px" height="800px" viewBox="0 0 16 16" xmlns="http://www.w3.org/2000/svg">
  <path fill="#000000" d="M4.29289,4.297105 L8,0.59 L11.7071,4.297105 C12.0976,4.687635 12.0976,5.320795 11.7071,5.711315 C11.3166,6.101845 10.6834,6.101845 10.2929,5.711315 L9,4.418425 L9,11.004215 C9,11.004515 9,11.003915 9,11.004215 L9,12.004215 C9,12.556515 9.44772,13.004215 10,13.004215 L14,13.004215 C14.5523,13.004215 15,13.451915 15,14.004215 C15,14.556515 14.5523,15.004215 14,15.004215 L10,15.004215 C8.34315,15.004215 7,13.661115 7,12.004215 L7,4.418425 L5.70711,5.711315 C5.31658,6.101845 4.68342,6.101845 4.29289,5.711315 C3.90237,5.320795 3.90237,4.687635 4.29289,4.297105 Z"/>
</svg>