<?xml version="1.0" encoding="UTF-8" standalone="no"?>
<!DOCTYPE svg PUBLIC "-//W3C//DTD SVG 1.1//EN"
 "http://www.w3.org/Graphics/SVG/1.1/DTD/svg11.dtd">
<!-- Generated by graphviz version 8.0.5 (0)
 -->
<!-- Title: G Pages: 1 -->
<svg width="220pt" height="188pt"
 viewBox="0.00 0.00 220.25 188.00" xmlns="http://www.w3.org/2000/svg" xmlns:xlink="http://www.w3.org/1999/xlink">
<g id="graph0" class="graph" transform="scale(1 1) rotate(0) translate(4 184)">
<title>G</title>
<polygon fill="white" stroke="none" points="-4,4 -4,-184 216.25,-184 216.25,4 -4,4"/>
<!-- datauis -->
<g id="node1" class="node">
<title>datauis</title>
<path fill="none" stroke="black" d="M200.25,-108C200.25,-108 155.75,-108 155.75,-108 149.75,-108 143.75,-102 143.75,-96 143.75,-96 143.75,-84 143.75,-84 143.75,-78 149.75,-72 155.75,-72 155.75,-72 200.25,-72 200.25,-72 206.25,-72 212.25,-78 212.25,-84 212.25,-84 212.25,-96 212.25,-96 212.25,-102 206.25,-108 200.25,-108"/>
<text text-anchor="middle" x="178" y="-85.33" font-family="Times,serif" font-size="14.00">datauis</text>
</g>
<!-- core -->
<g id="node2" class="node">
<title>core</title>
<path fill="none" stroke="black" d="M114,-36C114,-36 84,-36 84,-36 78,-36 72,-30 72,-24 72,-24 72,-12 72,-12 72,-6 78,0 84,0 84,0 114,0 114,0 120,0 126,-6 126,-12 126,-12 126,-24 126,-24 126,-30 120,-36 114,-36"/>
<text text-anchor="middle" x="99" y="-13.32" font-family="Times,serif" font-size="14.00">core</text>
</g>
<!-- datauis&#45;&gt;core -->
<g id="edge1" class="edge">
<title>datauis&#45;&gt;core</title>
<path fill="none" stroke="black" d="M158.47,-71.7C148.88,-63.2 137.16,-52.81 126.67,-43.51"/>
<polygon fill="black" stroke="black" points="129.38,-41.36 119.58,-37.35 124.74,-46.6 129.38,-41.36"/>
</g>
<!-- class -->
<g id="node3" class="node">
<title>class</title>
<path fill="none" stroke="black" d="M193,-180C193,-180 163,-180 163,-180 157,-180 151,-174 151,-168 151,-168 151,-156 151,-156 151,-150 157,-144 163,-144 163,-144 193,-144 193,-144 199,-144 205,-150 205,-156 205,-156 205,-168 205,-168 205,-174 199,-180 193,-180"/>
<text text-anchor="middle" x="178" y="-157.32" font-family="Times,serif" font-size="14.00">class</text>
</g>
<!-- class&#45;&gt;datauis -->
<g id="edge2" class="edge">
<title>class&#45;&gt;datauis</title>
<path fill="none" stroke="black" d="M178,-143.7C178,-136.24 178,-127.32 178,-118.97"/>
<polygon fill="black" stroke="black" points="181.5,-119.1 178,-109.1 174.5,-119.1 181.5,-119.1"/>
</g>
<!-- run -->
<g id="node4" class="node">
<title>run</title>
<path fill="none" stroke="black" d="M42,-108C42,-108 12,-108 12,-108 6,-108 0,-102 0,-96 0,-96 0,-84 0,-84 0,-78 6,-72 12,-72 12,-72 42,-72 42,-72 48,-72 54,-78 54,-84 54,-84 54,-96 54,-96 54,-102 48,-108 42,-108"/>
<text text-anchor="middle" x="27" y="-85.33" font-family="Times,serif" font-size="14.00">run</text>
</g>
<!-- run&#45;&gt;core -->
<g id="edge3" class="edge">
<title>run&#45;&gt;core</title>
<path fill="none" stroke="black" d="M44.8,-71.7C53.45,-63.28 64.01,-53.02 73.5,-43.79"/>
<polygon fill="black" stroke="black" points="75.43,-46.83 80.16,-37.35 70.55,-41.81 75.43,-46.83"/>
</g>
<!-- app -->
<g id="node5" class="node">
<title>app</title>
<path fill="none" stroke="black" d="M114,-108C114,-108 84,-108 84,-108 78,-108 72,-102 72,-96 72,-96 72,-84 72,-84 72,-78 78,-72 84,-72 84,-72 114,-72 114,-72 120,-72 126,-78 126,-84 126,-84 126,-96 126,-96 126,-102 120,-108 114,-108"/>
<text text-anchor="middle" x="99" y="-85.33" font-family="Times,serif" font-size="14.00">app</text>
</g>
<!-- app&#45;&gt;core -->
<g id="edge4" class="edge">
<title>app&#45;&gt;core</title>
<path fill="none" stroke="black" d="M99,-71.7C99,-64.24 99,-55.32 99,-46.97"/>
<polygon fill="black" stroke="black" points="102.5,-47.1 99,-37.1 95.5,-47.1 102.5,-47.1"/>
</g>
</g>
</svg>
