<?xml version="1.0" encoding="UTF-8" standalone="no"?>
<!DOCTYPE svg PUBLIC "-//W3C//DTD SVG 1.1//EN"
 "http://www.w3.org/Graphics/SVG/1.1/DTD/svg11.dtd">
<!-- Generated by graphviz version 8.0.5 (0)
 -->
<!-- Title: G Pages: 1 -->
<svg width="212pt" height="188pt"
 viewBox="0.00 0.00 211.75 188.00" xmlns="http://www.w3.org/2000/svg" xmlns:xlink="http://www.w3.org/1999/xlink">
<g id="graph0" class="graph" transform="scale(1 1) rotate(0) translate(4 184)">
<title>G</title>
<polygon fill="white" stroke="none" points="-4,4 -4,-184 207.75,-184 207.75,4 -4,4"/>
<!-- datauis -->
<g id="node1" class="node">
<title>datauis</title>
<path fill="none" stroke="black" d="M191.75,-108C191.75,-108 156.25,-108 156.25,-108 150.25,-108 144.25,-102 144.25,-96 144.25,-96 144.25,-84 144.25,-84 144.25,-78 150.25,-72 156.25,-72 156.25,-72 191.75,-72 191.75,-72 197.75,-72 203.75,-78 203.75,-84 203.75,-84 203.75,-96 203.75,-96 203.75,-102 197.75,-108 191.75,-108"/>
<text text-anchor="middle" x="174" y="-84.58" font-family="Arial" font-size="14.00">datauis</text>
</g>
<!-- core -->
<g id="node2" class="node">
<title>core</title>
<path fill="none" stroke="black" d="M114,-36C114,-36 84,-36 84,-36 78,-36 72,-30 72,-24 72,-24 72,-12 72,-12 72,-6 78,0 84,0 84,0 114,0 114,0 120,0 126,-6 126,-12 126,-12 126,-24 126,-24 126,-30 120,-36 114,-36"/>
<text text-anchor="middle" x="99" y="-12.57" font-family="Arial" font-size="14.00">core</text>
</g>
<!-- datauis&#45;&gt;core -->
<g id="edge1" class="edge">
<title>datauis&#45;&gt;core</title>
<path fill="none" stroke="black" d="M155.46,-71.7C146.45,-63.28 135.45,-53.02 125.56,-43.79"/>
<polygon fill="black" stroke="black" points="128.28,-41.61 118.59,-37.35 123.51,-46.73 128.28,-41.61"/>
</g>
<!-- class -->
<g id="node3" class="node">
<title>class</title>
<path fill="none" stroke="black" d="M189,-180C189,-180 159,-180 159,-180 153,-180 147,-174 147,-168 147,-168 147,-156 147,-156 147,-150 153,-144 159,-144 159,-144 189,-144 189,-144 195,-144 201,-150 201,-156 201,-156 201,-168 201,-168 201,-174 195,-180 189,-180"/>
<text text-anchor="middle" x="174" y="-156.57" font-family="Arial" font-size="14.00">class</text>
</g>
<!-- class&#45;&gt;datauis -->
<g id="edge2" class="edge">
<title>class&#45;&gt;datauis</title>
<path fill="none" stroke="black" d="M174,-143.7C174,-136.24 174,-127.32 174,-118.97"/>
<polygon fill="black" stroke="black" points="177.5,-119.1 174,-109.1 170.5,-119.1 177.5,-119.1"/>
</g>
<!-- run -->
<g id="node4" class="node">
<title>run</title>
<path fill="none" stroke="black" d="M42,-108C42,-108 12,-108 12,-108 6,-108 0,-102 0,-96 0,-96 0,-84 0,-84 0,-78 6,-72 12,-72 12,-72 42,-72 42,-72 48,-72 54,-78 54,-84 54,-84 54,-96 54,-96 54,-102 48,-108 42,-108"/>
<text text-anchor="middle" x="27" y="-84.58" font-family="Arial" font-size="14.00">run</text>
</g>
<!-- run&#45;&gt;core -->
<g id="edge3" class="edge">
<title>run&#45;&gt;core</title>
<path fill="none" stroke="black" d="M44.8,-71.7C53.45,-63.28 64.01,-53.02 73.5,-43.79"/>
<polygon fill="black" stroke="black" points="75.43,-46.83 80.16,-37.35 70.55,-41.81 75.43,-46.83"/>
</g>
<!-- app -->
<g id="node5" class="node">
<title>app</title>
<path fill="none" stroke="black" d="M114,-108C114,-108 84,-108 84,-108 78,-108 72,-102 72,-96 72,-96 72,-84 72,-84 72,-78 78,-72 84,-72 84,-72 114,-72 114,-72 120,-72 126,-78 126,-84 126,-84 126,-96 126,-96 126,-102 120,-108 114,-108"/>
<text text-anchor="middle" x="99" y="-84.58" font-family="Arial" font-size="14.00">app</text>
</g>
<!-- app&#45;&gt;core -->
<g id="edge4" class="edge">
<title>app&#45;&gt;core</title>
<path fill="none" stroke="black" d="M99,-71.7C99,-64.24 99,-55.32 99,-46.97"/>
<polygon fill="black" stroke="black" points="102.5,-47.1 99,-37.1 95.5,-47.1 102.5,-47.1"/>
</g>
</g>
</svg>
