<?xml version="1.0" encoding="UTF-8" standalone="no"?>
<!DOCTYPE svg PUBLIC "-//W3C//DTD SVG 1.1//EN"
 "http://www.w3.org/Graphics/SVG/1.1/DTD/svg11.dtd">
<!-- Generated by graphviz version 8.0.5 (0)
 -->
<!-- Title: G Pages: 1 -->
<svg width="206pt" height="188pt"
 viewBox="0.00 0.00 206.00 188.00" xmlns="http://www.w3.org/2000/svg" xmlns:xlink="http://www.w3.org/1999/xlink">
<g id="graph0" class="graph" transform="scale(1 1) rotate(0) translate(4 184)">
<title>G</title>
<polygon fill="white" stroke="none" points="-4,4 -4,-184 202,-184 202,4 -4,4"/>
<!-- datauis -->
<g id="node1" class="node">
<title>datauis</title>
<path fill="none" stroke="black" d="M114,-108C114,-108 84,-108 84,-108 78,-108 72,-102 72,-96 72,-96 72,-84 72,-84 72,-78 78,-72 84,-72 84,-72 114,-72 114,-72 120,-72 126,-78 126,-84 126,-84 126,-96 126,-96 126,-102 120,-108 114,-108"/>
<text text-anchor="middle" x="99" y="-86.5" font-family="Arial" font-size="10.00">datauis</text>
</g>
<!-- ui -->
<g id="node2" class="node">
<title>ui</title>
<path fill="none" stroke="black" d="M42,-36C42,-36 12,-36 12,-36 6,-36 0,-30 0,-24 0,-24 0,-12 0,-12 0,-6 6,0 12,0 12,0 42,0 42,0 48,0 54,-6 54,-12 54,-12 54,-24 54,-24 54,-30 48,-36 42,-36"/>
<text text-anchor="middle" x="27" y="-14.5" font-family="Arial" font-size="10.00">ui</text>
</g>
<!-- datauis&#45;&gt;ui -->
<g id="edge1" class="edge">
<title>datauis&#45;&gt;ui</title>
<path fill="none" stroke="black" d="M81.2,-71.7C71.51,-62.27 59.43,-50.53 49.13,-40.52"/>
<polygon fill="black" stroke="black" points="50.65,-39.58 45.84,-37.35 48.21,-42.09 50.65,-39.58"/>
</g>
<!-- core -->
<g id="node3" class="node">
<title>core</title>
<path fill="none" stroke="black" d="M114,-36C114,-36 84,-36 84,-36 78,-36 72,-30 72,-24 72,-24 72,-12 72,-12 72,-6 78,0 84,0 84,0 114,0 114,0 120,0 126,-6 126,-12 126,-12 126,-24 126,-24 126,-30 120,-36 114,-36"/>
<text text-anchor="middle" x="99" y="-14.5" font-family="Arial" font-size="10.00">core</text>
</g>
<!-- datauis&#45;&gt;core -->
<g id="edge2" class="edge">
<title>datauis&#45;&gt;core</title>
<path fill="none" stroke="black" d="M99,-71.7C99,-62.71 99,-51.61 99,-41.92"/>
<polygon fill="black" stroke="black" points="100.75,-42.1 99,-37.1 97.25,-42.1 100.75,-42.1"/>
</g>
<!-- class -->
<g id="node4" class="node">
<title>class</title>
<path fill="none" stroke="black" d="M114,-180C114,-180 84,-180 84,-180 78,-180 72,-174 72,-168 72,-168 72,-156 72,-156 72,-150 78,-144 84,-144 84,-144 114,-144 114,-144 120,-144 126,-150 126,-156 126,-156 126,-168 126,-168 126,-174 120,-180 114,-180"/>
<text text-anchor="middle" x="99" y="-158.5" font-family="Arial" font-size="10.00">class</text>
</g>
<!-- class&#45;&gt;datauis -->
<g id="edge3" class="edge">
<title>class&#45;&gt;datauis</title>
<path fill="none" stroke="black" d="M99,-143.7C99,-134.71 99,-123.61 99,-113.92"/>
<polygon fill="black" stroke="black" points="100.75,-114.1 99,-109.1 97.25,-114.1 100.75,-114.1"/>
</g>
<!-- run -->
<g id="node5" class="node">
<title>run</title>
<path fill="none" stroke="black" d="M186,-108C186,-108 156,-108 156,-108 150,-108 144,-102 144,-96 144,-96 144,-84 144,-84 144,-78 150,-72 156,-72 156,-72 186,-72 186,-72 192,-72 198,-78 198,-84 198,-84 198,-96 198,-96 198,-102 192,-108 186,-108"/>
<text text-anchor="middle" x="171" y="-86.5" font-family="Arial" font-size="10.00">run</text>
</g>
<!-- run&#45;&gt;core -->
<g id="edge4" class="edge">
<title>run&#45;&gt;core</title>
<path fill="none" stroke="black" d="M153.2,-71.7C143.51,-62.27 131.43,-50.53 121.13,-40.52"/>
<polygon fill="black" stroke="black" points="122.65,-39.58 117.84,-37.35 120.21,-42.09 122.65,-39.58"/>
</g>
<!-- app -->
<g id="node6" class="node">
<title>app</title>
<path fill="none" stroke="black" d="M42,-108C42,-108 12,-108 12,-108 6,-108 0,-102 0,-96 0,-96 0,-84 0,-84 0,-78 6,-72 12,-72 12,-72 42,-72 42,-72 48,-72 54,-78 54,-84 54,-84 54,-96 54,-96 54,-102 48,-108 42,-108"/>
<text text-anchor="middle" x="27" y="-86.5" font-family="Arial" font-size="10.00">app</text>
</g>
<!-- app&#45;&gt;ui -->
<g id="edge6" class="edge">
<title>app&#45;&gt;ui</title>
<path fill="none" stroke="black" d="M27,-71.7C27,-62.71 27,-51.61 27,-41.92"/>
<polygon fill="black" stroke="black" points="28.75,-42.1 27,-37.1 25.25,-42.1 28.75,-42.1"/>
</g>
<!-- app&#45;&gt;core -->
<g id="edge5" class="edge">
<title>app&#45;&gt;core</title>
<path fill="none" stroke="black" d="M44.8,-71.7C54.49,-62.27 66.57,-50.53 76.87,-40.52"/>
<polygon fill="black" stroke="black" points="77.79,-42.09 80.16,-37.35 75.35,-39.58 77.79,-42.09"/>
</g>
</g>
</svg>
