<?xml version="1.0" encoding="UTF-8" standalone="no"?>
<!DOCTYPE svg PUBLIC "-//W3C//DTD SVG 1.1//EN"
 "http://www.w3.org/Graphics/SVG/1.1/DTD/svg11.dtd">
<!-- Generated by graphviz version 8.0.5 (0)
 -->
<!-- Title: G Pages: 1 -->
<svg width="208pt" height="260pt"
 viewBox="0.00 0.00 208.00 260.00" xmlns="http://www.w3.org/2000/svg" xmlns:xlink="http://www.w3.org/1999/xlink">
<g id="graph0" class="graph" transform="scale(1 1) rotate(0) translate(4 256)">
<title>G</title>
<polygon fill="white" stroke="none" points="-4,4 -4,-256 204,-256 204,4 -4,4"/>
<!-- datauis -->
<g id="node1" class="node">
<title>datauis</title>
<path fill="none" stroke="black" d="M152,-180C152,-180 122,-180 122,-180 116,-180 110,-174 110,-168 110,-168 110,-156 110,-156 110,-150 116,-144 122,-144 122,-144 152,-144 152,-144 158,-144 164,-150 164,-156 164,-156 164,-168 164,-168 164,-174 158,-180 152,-180"/>
<text text-anchor="middle" x="137" y="-158.5" font-family="Arial" font-size="10.00">datauis</text>
</g>
<!-- ui -->
<g id="node2" class="node">
<title>ui</title>
<path fill="none" stroke="black" d="M188,-36C188,-36 158,-36 158,-36 152,-36 146,-30 146,-24 146,-24 146,-12 146,-12 146,-6 152,0 158,0 158,0 188,0 188,0 194,0 200,-6 200,-12 200,-12 200,-24 200,-24 200,-30 194,-36 188,-36"/>
<text text-anchor="middle" x="173" y="-14.5" font-family="Arial" font-size="10.00">ui</text>
</g>
<!-- datauis&#45;&gt;ui -->
<g id="edge1" class="edge">
<title>datauis&#45;&gt;ui</title>
<path fill="none" stroke="black" d="M152.61,-143.77C160.37,-134.03 168.95,-121.18 173,-108 179.65,-86.37 178.69,-60.36 176.65,-42.06"/>
<polygon fill="black" stroke="black" points="178.28,-41.92 175.93,-37.17 174.8,-42.35 178.28,-41.92"/>
</g>
<!-- core -->
<g id="node3" class="node">
<title>core</title>
<path fill="none" stroke="black" d="M97,-36C97,-36 67,-36 67,-36 61,-36 55,-30 55,-24 55,-24 55,-12 55,-12 55,-6 61,0 67,0 67,0 97,0 97,0 103,0 109,-6 109,-12 109,-12 109,-24 109,-24 109,-30 103,-36 97,-36"/>
<text text-anchor="middle" x="82" y="-14.5" font-family="Arial" font-size="10.00">core</text>
</g>
<!-- datauis&#45;&gt;core -->
<g id="edge2" class="edge">
<title>datauis&#45;&gt;core</title>
<path fill="none" stroke="black" d="M122.84,-143.85C115.31,-133.93 106.5,-120.89 101,-108 91.92,-86.72 87.01,-60.66 84.47,-42.26"/>
<polygon fill="black" stroke="black" points="86.08,-42.06 83.7,-37.33 82.61,-42.51 86.08,-42.06"/>
</g>
<!-- app -->
<g id="node4" class="node">
<title>app</title>
<path fill="none" stroke="black" d="M152,-108C152,-108 122,-108 122,-108 116,-108 110,-102 110,-96 110,-96 110,-84 110,-84 110,-78 116,-72 122,-72 122,-72 152,-72 152,-72 158,-72 164,-78 164,-84 164,-84 164,-96 164,-96 164,-102 158,-108 152,-108"/>
<text text-anchor="middle" x="137" y="-86.5" font-family="Arial" font-size="10.00">app</text>
</g>
<!-- datauis&#45;&gt;app -->
<g id="edge3" class="edge">
<title>datauis&#45;&gt;app</title>
<path fill="none" stroke="black" d="M137,-143.7C137,-134.71 137,-123.61 137,-113.92"/>
<polygon fill="black" stroke="black" points="138.75,-114.1 137,-109.1 135.25,-114.1 138.75,-114.1"/>
</g>
<!-- app&#45;&gt;ui -->
<g id="edge7" class="edge">
<title>app&#45;&gt;ui</title>
<path fill="none" stroke="black" d="M145.9,-71.7C150.61,-62.54 156.44,-51.19 161.49,-41.38"/>
<polygon fill="black" stroke="black" points="163.47,-42.35 164.2,-37.1 160.36,-40.75 163.47,-42.35"/>
</g>
<!-- app&#45;&gt;core -->
<g id="edge6" class="edge">
<title>app&#45;&gt;core</title>
<path fill="none" stroke="black" d="M123.4,-71.7C116.01,-62.29 106.8,-50.56 98.94,-40.56"/>
<polygon fill="black" stroke="black" points="99.9,-39.95 95.44,-37.1 97.15,-42.12 99.9,-39.95"/>
</g>
<!-- class -->
<g id="node5" class="node">
<title>class</title>
<path fill="none" stroke="black" d="M152,-252C152,-252 122,-252 122,-252 116,-252 110,-246 110,-240 110,-240 110,-228 110,-228 110,-222 116,-216 122,-216 122,-216 152,-216 152,-216 158,-216 164,-222 164,-228 164,-228 164,-240 164,-240 164,-246 158,-252 152,-252"/>
<text text-anchor="middle" x="137" y="-230.5" font-family="Arial" font-size="10.00">class</text>
</g>
<!-- class&#45;&gt;datauis -->
<g id="edge4" class="edge">
<title>class&#45;&gt;datauis</title>
<path fill="none" stroke="black" d="M137,-215.7C137,-206.71 137,-195.61 137,-185.92"/>
<polygon fill="black" stroke="black" points="138.75,-186.1 137,-181.1 135.25,-186.1 138.75,-186.1"/>
</g>
<!-- run -->
<g id="node6" class="node">
<title>run</title>
<path fill="none" stroke="black" d="M42,-108C42,-108 12,-108 12,-108 6,-108 0,-102 0,-96 0,-96 0,-84 0,-84 0,-78 6,-72 12,-72 12,-72 42,-72 42,-72 48,-72 54,-78 54,-84 54,-84 54,-96 54,-96 54,-102 48,-108 42,-108"/>
<text text-anchor="middle" x="27" y="-86.5" font-family="Arial" font-size="10.00">run</text>
</g>
<!-- run&#45;&gt;core -->
<g id="edge5" class="edge">
<title>run&#45;&gt;core</title>
<path fill="none" stroke="black" d="M40.6,-71.7C47.99,-62.29 57.2,-50.56 65.06,-40.56"/>
<polygon fill="black" stroke="black" points="66.85,-42.12 68.56,-37.1 64.1,-39.95 66.85,-42.12"/>
</g>
</g>
</svg>
